<?xml version="1.0" encoding="utf-8"?>
<svg id="a49a6684-a310-471f-b710-0a5f45e441e2" data-name="Layer 1" width="3in" height="1.036in" viewBox="0 0 216 74.587" xmlns="http://www.w3.org/2000/svg">
  <defs>
    <style>
      .f91a3654-3c31-4c98-84a8-cebeb50b2d8f {
        fill: #0083bf;
      }

      .beb55a90-746d-41e1-b51a-fcf20c3f3e36 {
        fill: #231f20;
      }
    </style>
  </defs>
  <g>
    <path class="f91a3654-3c31-4c98-84a8-cebeb50b2d8f" d="M232.3,65.285h.3L233,66.377l.149.415h.012l.143-.415.391-1.092h.3V67.32h-.245V66.2c0-.18.019-.422.034-.6h-.012l-.165.453-.391,1.064h-.146l-.393-1.064-.162-.453h-.012c.012.18.034.422.034.6v1.12H232.3Zm-1.241.217h-.614v-.217h1.489V65.5h-.614V67.32h-.261Z" transform="translate(-18 -16.706)"/>
    <path class="f91a3654-3c31-4c98-84a8-cebeb50b2d8f" d="M221.127,83.154c-4.24,0-7.327-2.273-7.8-5.97h2.918c.372,2.035,2.373,3.289,4.884,3.289,2.713,0,4.376-1.322,4.376-2.848,0-1.222-.476-2.1-4.75-2.714-4.239-.577-6.818-1.63-6.818-4.919,0-2.51,2.172-5.191,6.852-5.191,4.036,0,6.751,2.037,7.124,5.463h-2.918c-.406-1.866-2.069-2.816-4.206-2.816-2.306,0-3.967,1.086-3.967,2.443,0,1.254.983,1.695,4.408,2.237,3.868.611,7.055,1.358,7.055,5.326,0,3.494-2.984,5.7-7.156,5.7" transform="translate(-18 -16.706)"/>
    <path class="f91a3654-3c31-4c98-84a8-cebeb50b2d8f" d="M210.137,82.712h-2.849V72.1c0-2.68-1.492-4.647-4.274-4.647a4.457,4.457,0,0,0-4.579,4.579V82.712h-2.884V65.242h2.782v1.9a6.443,6.443,0,0,1,5.089-2.341c4.272,0,6.715,3.054,6.715,7.4Z" transform="translate(-18 -16.706)"/>
    <path class="f91a3654-3c31-4c98-84a8-cebeb50b2d8f" d="M191.21,74.028a8.79,8.79,0,1,1-17.57,0,8.8,8.8,0,1,1,17.57,0m-2.883,0c0-3.63-2.644-6.581-5.9-6.581-3.223,0-5.869,2.951-5.869,6.581,0,3.562,2.646,6.446,5.869,6.446a6.192,6.192,0,0,0,5.9-6.446" transform="translate(-18 -16.706)"/>
    <path class="f91a3654-3c31-4c98-84a8-cebeb50b2d8f" d="M170.249,62.6h-2.884V59.171h2.884Zm0,20.115h-2.884V65.242h2.884Z" transform="translate(-18 -16.706)"/>
    <path class="f91a3654-3c31-4c98-84a8-cebeb50b2d8f" d="M163.16,82.712c-4.07.475-6.885-1.933-6.885-6.377V67.991H153.9V65.242h2.375V61.511h2.848v3.731h3.969v2.749h-3.969v8.344c0,3.087,1.9,3.867,4.037,3.733Z" transform="translate(-18 -16.706)"/>
    <path class="f91a3654-3c31-4c98-84a8-cebeb50b2d8f" d="M151.187,82.712h-2.781V79.9a7.451,7.451,0,0,1-6.037,3.258,9.186,9.186,0,0,1,0-18.352,7.513,7.513,0,0,1,6.037,3.223V65.242h2.781Zm-8.818-15.163c-3.292,0-5.87,2.918-5.87,6.48a6.126,6.126,0,0,0,5.87,6.378,6.224,6.224,0,0,0,5.934-6.378c0-3.562-2.713-6.48-5.934-6.48" transform="translate(-18 -16.706)"/>
    <path class="f91a3654-3c31-4c98-84a8-cebeb50b2d8f" d="M131.888,67.685c-3.019-.169-5.6,1.425-5.6,4.919V82.713h-2.883V65.243h2.782V67.21a6.177,6.177,0,0,1,5.7-2.374Z" transform="translate(-18 -16.706)"/>
    <path class="f91a3654-3c31-4c98-84a8-cebeb50b2d8f" d="M118.76,81.9c0,5.6-3.629,9.4-8.989,9.4-4.136,0-7.359-2.2-8.242-5.767h3.02c1.153,2.613,3.934,2.985,5.222,2.985,4.478,0,6.106-3.46,6.106-6.614V80.066a7.541,7.541,0,0,1-5.935,3.087,9.186,9.186,0,0,1,0-18.352,7.514,7.514,0,0,1,6.038,3.224V65.243h2.78Zm-8.818-14.416c-3.291,0-5.869,2.917-5.869,6.547,0,3.561,2.578,6.479,5.869,6.479,3.222,0,5.935-2.918,5.935-6.479,0-3.63-2.713-6.547-5.935-6.547" transform="translate(-18 -16.706)"/>
    <path class="f91a3654-3c31-4c98-84a8-cebeb50b2d8f" d="M98.036,77.285a8.152,8.152,0,0,1-8.243,5.834,9.164,9.164,0,0,1-.17-18.318c4.512,0,8.854,3.731,8.82,9.94H83.756a6.133,6.133,0,0,0,6.037,5.766,5.382,5.382,0,0,0,5.191-3.222Zm-2.781-5.123a6.006,6.006,0,0,0-5.632-4.748,6.075,6.075,0,0,0-5.7,4.748Z" transform="translate(-18 -16.706)"/>
    <path class="f91a3654-3c31-4c98-84a8-cebeb50b2d8f" d="M77.956,82.712c-4.069.475-6.885-1.933-6.885-6.377V67.991H68.7V65.242h2.374V61.511h2.848v3.731h3.97v2.749h-3.97v8.344c0,3.087,1.9,3.867,4.037,3.733Z" transform="translate(-18 -16.706)"/>
    <path class="f91a3654-3c31-4c98-84a8-cebeb50b2d8f" d="M65.983,82.712H63.135V72.1c0-2.68-1.493-4.647-4.275-4.647a4.456,4.456,0,0,0-4.578,4.579V82.712H51.4V65.242h2.78v1.9A6.444,6.444,0,0,1,59.268,64.8c4.273,0,6.715,3.054,6.715,7.4Z" transform="translate(-18 -16.706)"/>
    <path class="f91a3654-3c31-4c98-84a8-cebeb50b2d8f" d="M46.717,82.712H43.834V65.242h2.883Zm0-23.542H43.834V62.6h2.883Z" transform="translate(-18 -16.706)"/>
    <path class="beb55a90-746d-41e1-b51a-fcf20c3f3e36" d="M211.5,22.913c-5.676-.319-10.524,2.679-10.524,9.25V51.174h-5.425V18.32h5.232v3.7A11.618,11.618,0,0,1,211.5,17.555Z" transform="translate(-18 -16.706)" style="fill: rgb(255, 255, 255);"/>
    <path class="beb55a90-746d-41e1-b51a-fcf20c3f3e36" d="M187.2,40.966c-2.3,7.016-7.908,10.971-15.5,10.971a16.818,16.818,0,0,1-16.841-17.158c0-9.505,7.4-17.29,16.522-17.29,8.485,0,16.65,7.018,16.586,18.692H160.34c.7,6.826,5.932,10.844,11.354,10.844a10.12,10.12,0,0,0,9.76-6.059Zm-5.23-9.633c-1.34-5.357-5.8-8.931-10.59-8.931a11.425,11.425,0,0,0-10.716,8.931Z" transform="translate(-18 -16.706)" style="fill: rgb(255, 255, 255);"/>
    <polygon class="beb55a90-746d-41e1-b51a-fcf20c3f3e36" points="120.206 26.3 127.159 1.614 132.835 1.614 123.012 34.467 117.335 34.467 110.316 9.333 103.301 34.467 97.687 34.467 87.864 1.614 93.541 1.614 100.557 26.3 107.575 1.614 113.188 1.614 120.206 26.3" style="fill: rgb(255, 255, 255);"/>
    <path class="beb55a90-746d-41e1-b51a-fcf20c3f3e36" d="M101.845,34.841c0,9.442-7.145,17.1-16.522,17.1-9.313,0-16.522-7.654-16.522-17.1,0-9.569,7.209-17.351,16.522-17.351,9.377,0,16.522,7.782,16.522,17.351m-5.422,0c0-6.825-4.975-12.375-11.1-12.375-6.06,0-11.036,5.55-11.036,12.375,0,6.7,4.976,12.121,11.036,12.121,6.125,0,11.1-5.422,11.1-12.121" transform="translate(-18 -16.706)" style="fill: rgb(255, 255, 255);"/>
    <path class="f91a3654-3c31-4c98-84a8-cebeb50b2d8f" d="M41.8,36.314H20.381a2.382,2.382,0,0,1,0-4.763H41.8a2.382,2.382,0,0,1,0,4.763" transform="translate(-18 -16.706)"/>
    <path class="beb55a90-746d-41e1-b51a-fcf20c3f3e36" d="M31.2,69.937a2.381,2.381,0,0,1-2.381-2.381V40.308a2.381,2.381,0,0,1,4.573-.929,12.9,12.9,0,1,0,.348-10.785,2.381,2.381,0,0,1-4.258-2.133,17.648,17.648,0,1,1,4.1,21.136V67.556a2.381,2.381,0,0,1-2.38,2.381" transform="translate(-18 -16.706)" style="fill: rgb(255, 255, 255);"/>
  </g>
</svg>