<?xml version="1.0" encoding="UTF-8" ?>
<!DOCTYPE svg PUBLIC "-//W3C//DTD SVG 1.1//EN" "http://www.w3.org/Graphics/SVG/1.1/DTD/svg11.dtd">
<svg width="1228pt" height="453pt" viewBox="0 0 1228 453" version="1.1" xmlns="http://www.w3.org/2000/svg">
<path fill="#feffff" d=" M 0.00 0.00 L 1228.00 0.00 L 1228.00 453.00 L 0.00 453.00 L 0.00 0.00 Z" />
<path fill="#373737" d=" M 518.24 56.29 C 527.17 35.06 549.27 19.80 572.50 20.45 C 572.70 31.36 572.09 42.25 572.25 53.16 C 565.69 53.46 559.16 55.77 554.33 60.31 C 546.57 67.32 543.24 78.92 546.44 88.93 C 549.51 99.62 559.84 107.91 571.04 108.00 C 579.24 108.00 587.44 108.02 595.64 107.98 C 595.93 118.98 595.68 129.99 595.77 141.00 C 582.36 140.49 568.58 142.53 555.51 138.67 C 541.46 134.54 529.13 124.91 521.69 112.30 C 511.59 95.64 510.49 74.09 518.24 56.29 Z" />
<path fill="#39fefe" d=" M 595.55 21.21 C 606.03 21.25 616.51 21.21 627.00 21.23 C 627.15 32.26 626.68 43.30 627.24 54.31 C 627.86 83.19 627.35 112.11 627.50 141.00 C 616.92 141.00 606.34 141.00 595.77 141.00 C 595.68 129.99 595.93 118.98 595.64 107.98 C 595.33 79.06 595.51 50.13 595.55 21.21 Z" />
<path fill="#373737" d=" M 627.00 21.23 C 639.39 21.63 651.98 20.12 664.18 22.84 C 679.73 26.43 693.49 36.80 701.42 50.62 C 710.60 66.19 712.01 85.91 705.76 102.81 C 697.71 125.59 674.67 142.61 650.25 141.78 C 650.02 130.89 650.62 120.01 650.48 109.13 C 659.58 108.95 668.41 104.08 673.15 96.27 C 679.66 86.33 678.77 72.17 670.71 63.35 C 665.83 57.72 658.50 54.21 651.03 54.25 C 643.10 54.28 635.17 54.19 627.24 54.31 C 626.68 43.30 627.15 32.26 627.00 21.23 Z" />
<path fill="#373737" d=" M 367.12 218.19 C 378.72 209.25 393.49 205.40 407.97 205.22 C 417.55 205.17 427.35 206.06 436.26 209.82 C 436.37 216.52 436.03 223.22 435.21 229.87 C 421.57 221.38 404.24 219.23 388.93 224.06 C 378.29 227.36 369.76 235.97 365.39 246.09 C 360.65 257.38 359.42 269.92 360.63 282.05 C 362.03 294.29 366.77 306.65 375.99 315.13 C 384.60 323.61 397.24 326.97 409.08 325.78 C 418.93 325.04 428.41 321.82 437.25 317.53 C 437.46 322.89 437.87 328.25 437.70 333.62 C 422.20 341.55 404.09 344.06 386.98 341.07 C 371.36 338.39 357.84 327.66 350.42 313.84 C 341.78 297.76 339.54 278.72 342.39 260.83 C 345.00 244.25 353.47 228.25 367.12 218.19 Z" />
<path fill="#373737" d=" M 516.67 205.81 C 531.86 203.82 548.40 206.70 560.42 216.72 C 573.16 226.74 580.42 242.31 582.99 258.05 C 585.71 275.09 583.93 293.32 575.56 308.62 C 567.63 323.68 553.28 335.20 536.85 339.63 C 524.43 343.01 510.99 343.34 498.63 339.52 C 485.04 335.33 473.95 324.92 467.47 312.43 C 459.69 297.19 457.48 279.47 459.80 262.62 C 462.21 245.08 471.36 228.25 485.79 217.78 C 494.77 211.09 505.58 207.10 516.67 205.81 Z" />
<path fill="#373737" d=" M 768.58 217.70 C 782.42 208.26 799.53 204.79 816.09 205.25 C 823.91 205.58 831.89 206.17 839.27 209.05 C 839.31 219.12 839.15 229.22 838.01 239.24 C 828.89 233.23 817.76 231.38 807.03 231.10 C 798.19 231.07 788.69 232.72 781.91 238.84 C 772.91 246.48 770.03 258.78 769.52 270.08 C 769.03 283.25 772.26 297.48 782.03 306.93 C 790.23 315.33 802.61 318.02 813.97 316.78 C 814.04 302.19 813.98 287.59 814.00 273.00 C 823.50 273.00 833.00 273.00 842.51 273.00 C 842.47 293.91 842.59 314.83 842.45 335.74 C 825.08 342.00 806.01 344.06 787.82 340.68 C 771.40 337.67 756.57 327.04 748.58 312.38 C 739.90 296.50 737.61 277.50 740.89 259.81 C 744.01 242.82 754.17 227.26 768.58 217.70 Z" />
<path fill="#373737" d=" M 78.75 209.78 C 89.26 205.40 100.89 205.11 112.07 206.19 C 116.64 206.63 121.09 207.94 125.26 209.84 C 125.36 216.51 125.00 223.18 124.40 229.82 C 114.58 222.71 101.91 220.39 90.03 221.96 C 84.48 222.89 78.33 225.32 75.86 230.78 C 72.17 238.74 75.67 248.51 82.30 253.79 C 88.52 258.75 95.38 262.86 102.37 266.64 C 110.82 271.03 118.70 276.75 124.90 284.01 C 134.69 297.03 134.34 317.74 122.07 329.11 C 113.58 337.34 101.62 340.80 90.08 341.68 C 79.51 342.20 68.73 341.79 58.50 338.84 C 58.41 332.03 58.67 325.21 59.44 318.44 C 70.42 324.88 83.58 326.68 96.11 325.43 C 101.64 324.61 107.78 322.90 111.07 318.00 C 115.15 311.20 113.92 302.03 109.10 295.93 C 103.73 289.71 96.39 285.62 89.45 281.40 C 79.78 276.28 70.24 270.39 63.06 261.98 C 56.51 253.72 54.75 242.21 57.32 232.12 C 59.96 221.57 68.92 213.68 78.75 209.78 Z" />
<path fill="#373737" d=" M 160.49 207.51 C 166.41 207.49 172.34 207.45 178.27 207.53 C 178.23 251.69 178.27 295.84 178.25 340.00 C 172.33 340.00 166.41 340.00 160.49 340.00 C 160.49 295.83 160.49 251.67 160.49 207.51 Z" />
<path fill="#373737" d=" M 209.73 207.53 C 215.66 207.45 221.58 207.50 227.50 207.50 C 227.48 246.22 227.58 284.94 227.45 323.66 C 245.22 323.86 263.00 323.68 280.77 323.76 C 280.76 329.17 280.76 334.58 280.77 340.00 C 257.09 340.00 233.42 340.00 209.75 340.00 C 209.74 295.84 209.76 251.68 209.73 207.53 Z" />
<path fill="#373737" d=" M 609.74 207.52 C 616.28 207.47 622.81 207.49 629.36 207.51 C 653.61 242.98 677.84 278.48 702.24 313.86 C 696.91 278.66 698.88 242.95 698.50 207.50 C 704.08 207.49 709.66 207.49 715.25 207.50 C 715.25 251.66 715.26 295.83 715.25 340.00 C 709.91 339.98 704.57 340.05 699.23 339.95 C 692.91 333.35 688.39 325.32 682.93 318.04 C 662.97 289.30 643.21 260.42 623.25 231.68 C 625.77 248.31 626.20 265.18 626.51 281.97 C 626.96 301.30 626.69 320.65 626.77 340.00 C 621.09 340.00 615.42 340.00 609.75 340.00 C 609.74 295.84 609.76 251.68 609.74 207.52 Z" />
<path fill="#373737" d=" M 299.00 207.49 C 304.92 207.49 310.85 207.47 316.77 207.51 C 316.75 251.67 316.77 295.83 316.77 340.00 C 310.84 340.00 304.92 339.99 299.00 340.00 C 299.00 295.83 299.00 251.66 299.00 207.49 Z" />
<path fill="#373737" d=" M 903.21 207.49 C 913.02 207.50 922.84 207.48 932.66 207.50 C 947.43 251.71 962.55 295.80 977.36 340.00 C 966.63 340.00 955.90 340.00 945.18 340.00 C 942.68 331.52 940.20 323.03 937.73 314.54 C 923.61 314.48 909.49 314.51 895.37 314.52 C 892.93 323.03 890.43 331.51 887.93 340.00 C 877.32 339.99 866.71 340.02 856.11 339.98 C 871.79 295.81 887.48 251.65 903.21 207.49 Z" />
<path fill="#373737" d=" M 983.24 233.76 C 983.30 224.97 983.08 216.18 983.36 207.40 C 1016.24 207.61 1049.12 207.43 1082.00 207.49 C 1081.99 216.25 1082.00 225.01 1082.00 233.77 C 1070.33 233.76 1058.67 233.76 1047.00 233.77 C 1046.99 269.18 1047.00 304.59 1047.00 340.00 C 1037.58 340.00 1028.16 340.00 1018.75 340.00 C 1018.75 304.60 1018.73 269.20 1018.76 233.80 C 1006.92 233.72 995.08 233.79 983.24 233.76 Z" />
<path fill="#373737" d=" M 1097.75 207.49 C 1122.09 207.49 1146.43 207.48 1170.77 207.50 C 1170.79 215.72 1170.70 223.95 1170.82 232.17 C 1156.07 232.33 1141.33 232.27 1126.58 232.20 C 1126.41 241.63 1126.55 251.06 1126.51 260.49 C 1140.32 260.47 1154.13 260.54 1167.95 260.45 C 1168.06 268.56 1167.97 276.67 1167.99 284.77 C 1154.17 284.75 1140.35 284.77 1126.53 284.76 C 1126.50 294.92 1126.48 305.08 1126.54 315.24 C 1141.61 315.24 1156.68 315.22 1171.76 315.25 C 1171.77 323.50 1171.75 331.75 1171.77 340.00 C 1147.09 340.00 1122.42 340.00 1097.75 340.00 C 1097.75 295.83 1097.74 251.66 1097.75 207.49 Z" />
<path fill="#feffff" d=" M 511.53 221.77 C 523.32 219.27 536.52 221.25 546.00 229.04 C 556.70 237.57 562.42 250.92 564.30 264.20 C 565.98 276.84 564.84 290.08 559.82 301.89 C 555.52 312.07 547.16 320.81 536.54 324.35 C 524.23 328.43 509.78 327.54 498.98 319.95 C 489.21 313.12 483.08 302.16 480.21 290.77 C 476.62 276.04 477.33 260.09 483.01 245.97 C 487.81 233.91 498.58 224.09 511.53 221.77 Z" />
<path fill="#feffff" d=" M 913.76 234.92 C 919.42 253.13 924.66 271.48 930.17 289.74 C 920.83 289.73 911.49 289.78 902.15 289.72 C 906.79 271.63 911.06 253.41 913.76 234.92 Z" />
<path fill="#373737" d=" M 467.36 372.26 C 469.50 370.51 472.82 373.28 471.69 375.76 C 471.24 378.22 466.97 378.42 466.24 376.02 C 465.81 374.80 466.04 372.82 467.36 372.26 Z" />
<path fill="#373737" d=" M 719.41 381.99 C 719.65 376.90 724.37 373.22 729.10 372.41 C 733.16 371.84 737.51 371.72 741.33 373.46 C 741.25 375.06 741.18 376.67 741.12 378.27 C 737.27 375.86 732.48 374.91 728.06 376.08 C 725.53 376.86 723.31 379.21 723.64 382.01 C 723.46 385.07 725.63 387.56 727.97 389.23 C 731.95 392.24 736.82 393.98 740.35 397.61 C 744.57 401.82 744.26 409.83 739.30 413.34 C 733.70 417.50 726.24 416.91 719.76 415.74 C 719.88 414.09 720.01 412.44 720.15 410.80 C 724.75 412.86 730.15 413.61 735.02 412.07 C 739.38 410.70 740.17 404.76 737.54 401.46 C 734.20 397.22 728.85 395.48 724.66 392.29 C 721.25 390.08 718.94 386.13 719.41 381.99 Z" />
<path fill="#373737" d=" M 289.27 372.88 C 295.67 372.85 302.74 371.20 308.57 374.62 C 315.63 378.89 315.65 390.37 309.03 395.05 C 304.63 398.47 298.81 398.46 293.52 398.16 C 293.40 404.06 293.42 409.95 293.50 415.85 C 292.09 415.87 290.69 415.90 289.29 415.93 C 289.35 401.58 289.38 387.23 289.27 372.88 Z" />
<path fill="#feffff" d=" M 293.41 376.28 C 297.16 376.40 301.23 375.51 304.73 377.26 C 310.21 379.98 311.44 388.73 306.44 392.50 C 302.80 395.50 297.78 394.71 293.42 394.73 C 293.46 388.58 293.48 382.43 293.41 376.28 Z" />
<path fill="#373737" d=" M 684.62 392.63 C 686.78 387.95 691.12 383.89 696.62 384.44 C 696.64 385.83 696.65 387.23 696.68 388.63 C 690.99 387.24 686.81 392.28 684.78 396.91 C 684.51 403.24 684.71 409.58 684.71 415.92 C 683.39 415.90 682.07 415.89 680.76 415.89 C 680.79 405.70 680.76 395.52 680.78 385.33 C 682.07 385.32 683.38 385.31 684.69 385.30 C 684.68 387.75 684.65 390.18 684.62 392.63 Z" />
<path fill="#373737" d=" M 331.30 385.27 C 336.38 383.65 342.62 384.63 346.06 388.99 C 351.84 396.29 350.94 408.60 342.98 414.03 C 337.60 417.56 329.49 417.97 324.69 413.21 C 316.83 404.99 319.57 388.35 331.30 385.27 Z" />
<path fill="#373737" d=" M 355.38 385.36 C 356.88 385.33 358.38 385.32 359.88 385.31 C 361.88 392.83 364.13 400.28 366.14 407.79 C 366.43 409.01 366.90 410.18 367.57 411.25 C 369.73 402.66 372.65 394.30 375.83 386.04 C 377.18 386.07 378.52 386.09 379.88 386.12 C 382.76 394.88 385.94 403.55 388.91 412.29 C 390.72 403.20 393.45 394.32 395.71 385.34 C 397.16 385.33 398.62 385.31 400.08 385.30 C 397.07 395.55 393.60 405.65 390.29 415.80 C 388.92 415.84 387.55 415.87 386.19 415.91 C 383.39 407.30 380.21 398.81 377.29 390.24 C 375.02 398.96 371.99 407.45 368.76 415.87 C 367.38 415.87 366.00 415.88 364.63 415.88 C 361.61 405.69 358.53 395.51 355.38 385.36 Z" />
<path fill="#373737" d=" M 413.36 386.32 C 417.76 383.82 423.90 383.78 427.89 387.13 C 431.05 389.97 431.53 394.46 431.78 398.46 C 424.57 398.44 417.37 398.45 410.17 398.45 C 409.70 403.66 411.27 410.00 416.43 412.38 C 421.48 414.56 426.73 411.91 430.99 409.24 C 431.07 409.97 431.23 411.44 431.32 412.17 C 425.82 416.78 416.97 418.74 411.00 413.94 C 403.20 406.72 404.23 392.03 413.36 386.32 Z" />
<path fill="#373737" d=" M 446.17 392.28 C 448.40 387.81 452.55 384.00 457.87 384.39 C 457.89 385.81 457.91 387.23 457.94 388.65 C 452.54 387.25 448.40 391.97 446.40 396.37 C 445.97 402.85 446.34 409.38 446.24 415.88 C 444.84 415.89 443.45 415.91 442.06 415.94 C 442.14 405.72 442.11 395.50 442.08 385.29 C 443.46 385.31 444.85 385.33 446.24 385.35 C 446.23 387.66 446.22 389.97 446.17 392.28 Z" />
<path fill="#373737" d=" M 466.78 385.34 C 468.15 385.32 469.53 385.30 470.91 385.28 C 470.90 395.50 470.86 405.72 470.93 415.94 C 469.54 415.91 468.15 415.89 466.76 415.88 C 466.79 405.70 466.77 395.52 466.78 385.34 Z" />
<path fill="#373737" d=" M 483.79 385.32 C 485.09 385.32 486.39 385.31 487.69 385.31 C 487.67 387.11 487.66 388.92 487.65 390.73 C 490.86 387.78 494.62 385.04 499.10 384.60 C 501.80 384.28 504.97 385.03 506.56 387.41 C 508.28 389.93 508.52 393.10 508.64 396.06 C 508.74 402.68 508.60 409.30 508.71 415.92 C 507.30 415.90 505.90 415.89 504.51 415.88 C 504.55 408.93 504.62 401.98 504.51 395.04 C 504.41 392.46 503.47 389.23 500.64 388.52 C 495.61 387.21 491.31 390.95 487.66 393.85 C 487.70 401.21 487.62 408.56 487.71 415.92 C 486.39 415.90 485.07 415.89 483.76 415.89 C 483.80 405.70 483.74 395.51 483.79 385.32 Z" />
<path fill="#373737" d=" M 523.67 388.61 C 528.37 384.01 535.97 383.52 541.78 386.17 C 544.46 385.47 547.22 385.28 549.98 385.25 C 549.90 386.38 549.82 387.52 549.75 388.66 C 547.88 388.66 546.01 388.65 544.17 388.65 C 546.64 392.75 546.81 398.67 543.17 402.15 C 540.14 405.62 535.26 406.36 530.90 406.25 C 528.29 406.06 526.25 407.95 524.12 409.14 C 524.23 409.70 524.45 410.82 524.56 411.38 C 531.43 413.32 539.04 411.13 545.59 414.38 C 550.58 416.88 549.76 424.63 545.48 427.43 C 539.73 431.42 532.12 431.79 525.46 430.39 C 522.01 429.74 518.48 426.83 519.06 422.99 C 518.70 419.31 522.33 417.26 524.94 415.50 C 522.32 414.71 520.12 413.00 519.49 410.22 C 520.96 407.61 523.76 406.37 526.37 405.20 C 520.06 402.51 518.94 393.25 523.67 388.61 Z" />
<path fill="#373737" d=" M 571.29 385.32 C 572.79 385.32 574.30 385.33 575.82 385.34 C 579.31 393.95 582.14 402.86 586.17 411.22 C 588.87 402.49 591.81 393.84 594.98 385.28 C 596.41 385.30 597.84 385.32 599.28 385.34 C 594.68 397.11 590.33 408.98 585.46 420.64 C 583.90 424.11 582.39 427.90 579.30 430.32 C 576.17 432.57 572.05 431.60 568.52 431.11 C 568.57 429.69 568.63 428.29 568.71 426.89 C 571.72 427.29 575.47 429.63 578.02 426.95 C 581.06 423.93 582.44 419.66 583.77 415.69 C 579.47 405.65 575.41 395.46 571.29 385.32 Z" />
<path fill="#373737" d=" M 616.25 385.18 C 621.29 383.66 627.47 384.76 630.81 389.10 C 636.07 395.77 635.69 406.51 629.55 412.51 C 624.31 417.41 615.09 418.48 609.61 413.42 C 601.39 405.27 604.26 388.08 616.25 385.18 Z" />
<path fill="#373737" d=" M 644.08 385.30 C 645.35 385.30 646.63 385.30 647.91 385.30 C 648.04 392.56 647.55 399.85 648.19 407.09 C 648.31 409.86 650.08 412.78 653.07 413.01 C 657.51 413.40 661.39 410.40 664.59 407.66 C 665.04 400.23 664.62 392.77 664.79 385.32 C 666.08 385.32 667.38 385.31 668.69 385.31 C 668.66 395.51 668.63 405.71 668.71 415.92 C 667.39 415.90 666.07 415.89 664.76 415.89 C 664.76 414.21 664.77 412.54 664.79 410.87 C 660.65 414.49 655.19 417.88 649.47 416.31 C 645.54 415.26 644.20 410.73 644.15 407.12 C 644.01 399.84 644.17 392.57 644.08 385.30 Z" />
<path fill="#373737" d=" M 753.82 385.30 C 755.17 385.30 756.54 385.30 757.91 385.30 C 757.90 391.86 757.85 398.43 757.91 404.99 C 758.08 407.58 758.40 410.91 760.91 412.33 C 765.41 414.49 770.06 411.23 773.55 408.57 C 774.96 407.92 774.72 406.30 774.79 405.02 C 774.75 398.49 774.83 391.96 774.72 385.44 C 776.03 385.37 777.35 385.31 778.69 385.27 C 778.67 395.48 778.63 405.70 778.71 415.92 C 777.38 415.90 776.06 415.89 774.76 415.89 C 774.76 414.13 774.77 412.37 774.80 410.62 C 770.84 414.52 765.22 417.83 759.49 416.33 C 755.84 415.45 754.38 411.42 754.13 408.08 C 753.43 400.51 753.88 392.89 753.82 385.30 Z" />
<path fill="#373737" d=" M 790.88 391.81 C 795.10 384.99 804.54 382.68 811.66 386.10 C 811.66 387.79 811.68 389.49 811.72 391.19 C 807.36 387.65 800.20 386.68 796.01 390.99 C 791.11 396.25 791.21 405.67 796.30 410.77 C 800.88 414.75 807.71 413.09 811.97 409.45 C 811.94 410.32 811.88 412.06 811.86 412.93 C 806.56 417.34 797.86 418.43 792.64 413.36 C 787.31 407.72 786.89 398.30 790.88 391.81 Z" />
<path fill="#373737" d=" M 822.81 391.74 C 827.01 384.86 836.56 382.76 843.66 386.14 C 843.64 387.75 843.61 389.36 843.59 390.98 C 839.87 388.52 835.14 387.22 830.83 388.85 C 823.04 392.81 822.29 404.94 828.25 410.77 C 832.83 414.79 839.63 413.00 843.94 409.45 C 843.92 410.29 843.90 411.98 843.89 412.83 C 838.57 417.27 829.86 418.50 824.58 413.39 C 819.20 407.76 818.75 398.24 822.81 391.74 Z" />
<path fill="#373737" d=" M 857.64 387.69 C 862.08 383.87 869.37 383.31 874.02 387.06 C 877.13 389.95 877.94 394.39 877.72 398.47 C 870.52 398.43 863.33 398.45 856.13 398.46 C 855.97 403.67 857.43 409.86 862.53 412.35 C 867.64 414.58 873.02 411.95 877.28 409.15 C 878.49 412.75 874.87 414.07 872.33 415.27 C 866.68 417.87 858.92 417.17 855.20 411.73 C 850.28 404.57 851.03 393.57 857.64 387.69 Z" />
<path fill="#373737" d=" M 888.88 387.92 C 893.20 384.08 899.69 384.15 904.96 385.66 C 904.82 387.28 904.71 388.90 904.61 390.53 C 901.37 388.31 897.15 387.58 893.38 388.69 C 890.73 389.51 889.93 393.19 891.83 395.17 C 895.62 398.99 901.84 399.41 905.09 403.92 C 907.44 407.39 906.24 412.51 902.51 414.49 C 897.93 417.35 892.20 416.74 887.13 415.88 C 887.10 414.27 887.09 412.65 887.10 411.04 C 891.21 412.75 896.01 414.14 900.31 412.24 C 902.83 410.92 902.50 407.15 900.63 405.40 C 896.98 402.09 891.60 401.42 888.27 397.69 C 885.87 394.93 886.03 390.31 888.88 387.92 Z" />
<path fill="#373737" d=" M 917.03 388.14 C 921.31 384.15 927.95 384.05 933.28 385.68 C 933.23 387.17 933.20 388.66 933.19 390.16 C 929.43 388.67 925.05 387.22 921.15 388.98 C 918.77 390.26 918.67 393.68 920.51 395.46 C 923.75 398.50 928.43 399.24 931.82 402.10 C 935.28 404.65 935.84 410.54 932.43 413.37 C 927.88 417.39 921.15 416.93 915.59 415.83 C 915.55 414.20 915.53 412.58 915.52 410.97 C 919.63 412.81 924.73 414.27 928.97 412.03 C 931.45 410.47 930.74 406.89 928.86 405.17 C 925.40 402.41 920.87 401.40 917.48 398.54 C 914.53 396.00 914.17 390.89 917.03 388.14 Z" />
<path fill="#feffff" d=" M 331.34 388.51 C 335.44 386.90 340.58 388.27 343.00 392.04 C 346.64 397.65 346.57 405.93 341.86 410.91 C 337.22 415.28 328.64 413.75 326.16 407.75 C 322.99 401.48 323.95 391.26 331.34 388.51 Z" />
<path fill="#feffff" d=" M 410.10 395.75 C 411.20 391.25 415.06 387.19 420.00 387.63 C 424.31 387.57 426.73 391.82 427.53 395.52 C 421.72 395.59 415.90 395.44 410.10 395.75 Z" />
<path fill="#feffff" d=" M 530.20 388.13 C 533.42 387.20 537.64 387.26 539.89 390.15 C 542.78 393.42 542.57 399.32 538.68 401.74 C 534.54 404.46 527.40 403.81 525.58 398.59 C 523.62 394.56 525.79 389.27 530.20 388.13 Z" />
<path fill="#feffff" d=" M 616.30 388.37 C 620.50 386.87 625.46 388.46 627.83 392.28 C 631.28 397.82 631.07 405.76 626.72 410.78 C 622.17 415.24 613.58 413.88 610.93 407.96 C 607.65 401.53 608.65 391.11 616.30 388.37 Z" />
<path fill="#feffff" d=" M 856.24 395.75 C 857.47 391.36 861.12 387.23 866.03 387.64 C 870.41 387.41 872.93 391.76 873.69 395.52 C 867.87 395.59 862.05 395.46 856.24 395.75 Z" />
<path fill="#feffff" d=" M 523.22 421.93 C 523.42 418.82 526.67 417.44 528.73 415.62 C 533.36 415.87 538.32 415.32 542.64 417.33 C 544.78 418.10 545.09 420.77 544.63 422.71 C 543.97 425.14 541.58 426.55 539.32 427.26 C 535.28 428.36 530.87 428.53 526.88 427.17 C 524.90 426.24 522.72 424.37 523.22 421.93 Z" />
</svg>
