<?xml version="1.0" encoding="UTF-8" standalone="no"?>
<!DOCTYPE svg PUBLIC "-//W3C//DTD SVG 1.1//EN" "http://www.w3.org/Graphics/SVG/1.1/DTD/svg11.dtd">
<!-- Generated by Microsoft Visio, SVG Export SMACD22_LOGO_GOLD_ON_WHITE.svg Page-1 -->
<svg xmlns="http://www.w3.org/2000/svg" xmlns:xlink="http://www.w3.org/1999/xlink" xmlns:ev="http://www.w3.org/2001/xml-events"
		xmlns:v="http://schemas.microsoft.com/visio/2003/SVGExtensions/" width="5.00845in" height="1.36868in"
		viewBox="0 0 360.608 98.5453" xml:space="preserve" color-interpolation-filters="sRGB" class="st9">
	<v:documentProperties v:langID="2070" v:metric="true" v:viewMarkup="false"/>

	<style type="text/css">
	<![CDATA[
		.st1 {fill:none;stroke:none;stroke-linecap:round;stroke-linejoin:round;stroke-width:0.75}
		.st2 {fill:#a48a46;font-family:Poppins Light;font-size:4.99999em;font-weight:bold;letter-spacing:0.0816668em}
		.st3 {baseline-shift:29.9998%;font-size:0.599996em;letter-spacing:0.136112em}
		.st4 {fill:#a48a46;font-family:Poppins Light;font-size:1.5em;letter-spacing:0.166667em}
		.st5 {font-size:1em;letter-spacing:0.333333em}
		.st6 {fill:#a48a46;fill-opacity:0.7;stroke:none;stroke-linecap:round;stroke-linejoin:round;stroke-width:0.25}
		.st7 {fill:#a48a46;fill-opacity:0.8;stroke:none;stroke-linecap:round;stroke-linejoin:round;stroke-width:0.25}
		.st8 {fill:#a48a46;fill-opacity:0.52;stroke:none;stroke-linecap:round;stroke-linejoin:round;stroke-width:0.25}
		.st9 {fill:none;fill-rule:evenodd;font-size:12px;overflow:visible;stroke-linecap:square;stroke-miterlimit:3}
	]]>
	</style>

	<g v:mID="0" v:index="1" v:groupContext="foregroundPage">
		<title>Page-1</title>
		<v:pageProperties v:drawingScale="0.0393701" v:pageScale="0.0393701" v:drawingUnits="24" v:shadowOffsetX="4.25197"
				v:shadowOffsetY="-4.25197"/>
		<g id="group200-1" transform="translate(0.375,-0.375)" v:mID="200" v:groupContext="group">
			<title>Sheet.200</title>
			<g id="shape201-2" v:mID="201" v:groupContext="shape" transform="translate(-6.39488E-14,-7.08667)">
				<title>Sheet.201</title>
				<desc>SMACD 22</desc>
				<v:textBlock v:margins="rect(4,4,4,4)" v:tabSpace="42.5197"/>
				<v:textRect cx="167.244" cy="53.191" width="334.49" height="90.7086"/>
				<rect x="0" y="7.83667" width="334.488" height="90.7086" class="st1"/>
				<text x="4" y="71.19" class="st2" v:langID="1033"><v:paragraph/><v:tabList/>SMACD <tspan dy="-0.084em" class="st3"
							v:baseFontSize="60">22</tspan></text>			</g>
			<g id="shape202-6" v:mID="202" v:groupContext="shape" transform="translate(2.6929,-1.42109E-14)">
				<title>Sheet.202</title>
				<desc>12-15•JUNE•SARDINIA•ITALY</desc>
				<v:textBlock v:margins="rect(4,4,4,4)" v:tabSpace="42.5197"/>
				<v:textRect cx="178.583" cy="86.3485" width="357.17" height="24.3935"/>
				<rect x="0" y="74.1518" width="357.165" height="24.3935" class="st1"/>
				<text x="4" y="91.75" class="st4" v:langID="1033"><v:paragraph/><v:tabList/>12-15<tspan class="st5">•</tspan>JUN<tspan
							class="st5">E</tspan><tspan class="st5">•</tspan>SARDINI<tspan class="st5">A</tspan><tspan class="st5">•</tspan>ITALY</text>			</g>
			<g id="shape203-14" v:mID="203" v:groupContext="shape" transform="translate(235.308,-38.2677)">
				<title>Sheet.203</title>
				<path d="M0 95.1 C0.26 94.93 0.91 94.07 2.16 93.33 C3.46 92.56 5.4 91.92 7 91.45 C10.66 90.35 12.52 90.11 15.58 90.05
							 C19.36 89.98 24.98 90.18 27.65 90.54 C30.98 91.14 31.79 91.3 32.57 91.46 C38.75 92.77 43.06 94.36 48.68
							 94.77 C52.15 95.03 56.13 94.84 58.8 94.56 C60.98 94.33 62.28 94.04 65.67 93.1 C67.29 92.65 69.39 92.05
							 70.63 91.78 C75.45 90.77 67.33 94.89 62.58 96.63 C61.2 97.13 60.1 97.43 57.4 97.83 C55.41 98.12 52.54
							 98.46 49.8 98.55 C44.89 98.7 40.42 98.06 36.78 97.33 C33.35 96.64 30.66 95.87 27.44 95.15 C22.9 94.12
							 17.3 93.18 10.87 93.3 C6.96 93.38 2.73 93.85 0 95.1 Z" class="st6"/>
			</g>
			<g id="shape204-16" v:mID="204" v:groupContext="shape" transform="translate(242.22,-31.1772)">
				<title>Sheet.204</title>
				<path d="M0 92.81 C0.3 92.52 1.04 91.08 2.47 89.85 C3.95 88.57 6.17 87.5 8 86.71 C12.19 84.88 14.31 84.48 17.81 84.38
							 C22.13 84.26 28.56 84.6 31.61 85.2 C35.42 86.2 36.34 86.46 37.23 86.74 C44.3 88.91 49.22 91.56 55.65
							 92.26 C59.62 92.69 64.17 92.37 67.22 91.9 C69.71 91.52 71.2 91.04 75.07 89.46 C76.93 88.71 79.33 87.71
							 80.75 87.27 C86.26 85.58 76.97 92.45 71.54 95.35 C69.96 96.19 68.71 96.69 65.62 97.35 C63.34 97.83 60.06
							 98.4 56.93 98.55 C51.32 98.81 46.2 97.73 42.04 96.51 C38.12 95.36 35.05 94.09 31.37 92.88 C26.18 91.17
							 19.78 89.6 12.43 89.8 C7.95 89.93 3.12 90.71 0 92.81 Z" class="st7"/>
			</g>
			<g id="shape205-18" v:mID="205" v:groupContext="shape" transform="translate(259.228,-31.1811)">
				<title>Sheet.205</title>
				<path d="M0 92.37 C0.33 92.06 1.15 90.52 2.72 89.19 C4.35 87.81 6.79 86.66 8.8 85.81 C13.41 83.84 15.75 83.41 19.59
							 83.31 C24.35 83.18 31.42 83.54 34.78 84.19 C38.98 85.26 39.99 85.55 40.97 85.84 C48.75 88.18 54.17 91.03
							 61.23 91.78 C65.61 92.24 70.61 91.9 73.97 91.4 C76.7 90.99 78.34 90.47 82.61 88.77 C84.65 87.96 87.29
							 86.88 88.85 86.41 C94.91 84.59 84.7 91.98 78.72 95.1 C76.98 96.01 75.6 96.55 72.21 97.26 C69.7 97.78
							 66.09 98.39 62.65 98.55 C56.47 98.83 50.84 97.67 46.26 96.36 C41.95 95.12 38.57 93.75 34.51 92.45 C28.81
							 90.61 21.76 88.92 13.68 89.14 C8.75 89.27 3.44 90.12 0 92.37 Z" class="st8"/>
			</g>
		</g>
	</g>
</svg>
